# xmcd CD database file
#
# Track frame offsets:
#	150
#	16946
#	34831
#	61247
#	76404
#	99177
#	113793
#	143283
#	158994
#	172538
#	193242
#	212659
#	225171
#	245667
#
# Disc length: 3570 seconds
#
# Revision: 0
# Processed by: cddbd v1.5.2PL0 Copyright (c) Steve Scherf et al.
# Submitted via: CDex 1.51
#
DISCID=a10df00e
DTITLE=Compay Segundo - Loe mejor de la vida
DYEAR=1998
DGENRE=Jazz
TTITLE0=El camison de Pepa
TTITLE1=Tu querias jugar
TTITLE2=Desdichado
TTITLE3=La ternera
TTITLE4=Para Vigo me voy
TTITLE5=Fidelidad
TTITLE6=Cuba y Espana
TTITLE7=Es mejor vivir asi
TTITLE8=Frutas del Caney
TTITLE9=La juma del ayer
TTITLE10=Linda Graciela
TTITLE11=La Pluma
TTITLE12=Juliancito (tu novioa te boto)
TTITLE13=Son de negros en Cuba
EXTD=YEAR: 1998
EXTT0=
EXTT1=
EXTT2=
EXTT3=
EXTT4=
EXTT5=
EXTT6=
EXTT7=
EXTT8=
EXTT9=
EXTT10=
EXTT11=
EXTT12=
EXTT13=
PLAYORDER=
